<svg aria-hidden="true" style="width:0;height:0;position:absolute" xmlns="http://www.w3.org/2000/svg" overflow="hidden"><defs><symbol id="menu" viewBox="0 0 20 20"><path d="M0 3h20v2H0V3zm0 6h20v2H0V9zm0 6h20v2H0v-2z"/></symbol><symbol id="close" viewBox="0 0 20 20"><path d="M10 8.586 2.929 1.515 1.515 2.929 8.586 10l-7.071 7.071 1.414 1.414L10 11.414l7.071 7.071 1.414-1.414L11.414 10l7.071-7.071-1.414-1.414L10 8.586z"/></symbol><symbol id="heart" fill="none" viewBox="0 0 46 52"><mask id="a" width="46" height="52" x="0" y="0" fill="#000" maskUnits="userSpaceOnUse"><path fill="#fff" d="M0 0h46v52H0z"/><path d="M10.575 1.108c-4.566.957-8.11 4.708-9.267 9.81-.423 1.782-.404 5.214.02 7.165.944 4.332 3.043 8.177 6.357 11.516 2.967 3.001 5.567 4.82 9.69 6.715l2.157 1.013V51h2.312V38.077l.578.169a2.41 2.41 0 0 0 1.156 0l.578-.17V51h2.312V37.308l2.06-.938c3.989-1.838 6.878-3.826 9.69-6.677C42.709 25.135 45 19.958 45 14.33c.02-6.17-3.217-11.178-8.303-12.885-1.079-.375-1.638-.432-3.68-.413-2.138.019-2.62.094-4.238.6-1.907.62-3.776 1.595-5.008 2.607l-.713.6-1.04-.768c-2.678-1.97-5.414-2.926-8.63-3.058-1.118-.037-2.39 0-2.813.094Zm4.392 2.326c.809.15 1.907.469 2.485.694 1.233.506 3.294 1.8 4.103 2.57 1.252 1.181 1.6 1.162 3.025-.113 2.234-2.026 5.837-3.414 8.803-3.414 4.027 0 7.706 3.151 8.881 7.597.212.787.405 2.063.424 2.832.077 1.688.02 1.744-2.6 2.738-2.12.807-3.892 1.2-6.936 1.538-1.945.225-2.35.338-2.947.77-1.233.918-1.426 1.594-1.426 5.42 0 2.87-.038 3.414-.327 3.714-.405.45-1.118.431-1.6-.038-.365-.356-.384-.619-.384-4.408 0-4.201-.116-4.914-.906-5.758-.173-.187-1.541-.919-3.024-1.65-1.676-.788-3.352-1.763-4.354-2.532-4.835-3.62-6.974-4.652-10.942-5.271-1.137-.188-2.1-.356-2.139-.375-.173-.131.867-1.463 1.811-2.288 2.235-1.989 4.778-2.626 8.053-2.026Zm-6.377 7.24c1.965.488 4.18 1.594 6.203 3.095.848.619 1.927 1.406 2.409 1.763 1.29.956 3.428 2.157 5.047 2.832.79.338 1.54.732 1.676.9.173.207.23 1.388.23 4.333 0 3.545.059 4.145.367 4.802.636 1.35 1.657 1.969 3.217 1.969 1.002 0 1.695-.3 2.427-1.07.829-.843.925-1.368.925-4.95 0-4.07-.039-3.996 2.235-4.183 2.311-.207 5.182-.826 7.089-1.52.963-.356 1.792-.6 1.83-.544.212.207-1.233 3.883-2.08 5.308-1.349 2.308-2.408 3.62-4.45 5.534-2.967 2.775-7.051 5.157-11.212 6.583L23 36.051l-1.483-.525c-4.45-1.5-8.38-3.883-11.54-6.94-4.007-3.845-6.106-7.915-6.627-12.735-.192-1.801.097-4.896.54-5.627.154-.263 2.909.018 4.7.45Z"/></mask><path fill="color(display-p3 1 .6471 .7294)" d="M10.575 1.108c-4.566.957-8.11 4.708-9.267 9.81-.423 1.782-.404 5.214.02 7.165.944 4.332 3.043 8.177 6.357 11.516 2.967 3.001 5.567 4.82 9.69 6.715l2.157 1.013V51h2.312V38.077l.578.169a2.41 2.41 0 0 0 1.156 0l.578-.17V51h2.312V37.308l2.06-.938c3.989-1.838 6.878-3.826 9.69-6.677C42.709 25.135 45 19.958 45 14.33c.02-6.17-3.217-11.178-8.303-12.885-1.079-.375-1.638-.432-3.68-.413-2.138.019-2.62.094-4.238.6-1.907.62-3.776 1.595-5.008 2.607l-.713.6-1.04-.768c-2.678-1.97-5.414-2.926-8.63-3.058-1.118-.037-2.39 0-2.813.094Zm4.392 2.326c.809.15 1.907.469 2.485.694 1.233.506 3.294 1.8 4.103 2.57 1.252 1.181 1.6 1.162 3.025-.113 2.234-2.026 5.837-3.414 8.803-3.414 4.027 0 7.706 3.151 8.881 7.597.212.787.405 2.063.424 2.832.077 1.688.02 1.744-2.6 2.738-2.12.807-3.892 1.2-6.936 1.538-1.945.225-2.35.338-2.947.77-1.233.918-1.426 1.594-1.426 5.42 0 2.87-.038 3.414-.327 3.714-.405.45-1.118.431-1.6-.038-.365-.356-.384-.619-.384-4.408 0-4.201-.116-4.914-.906-5.758-.173-.187-1.541-.919-3.024-1.65-1.676-.788-3.352-1.763-4.354-2.532-4.835-3.62-6.974-4.652-10.942-5.271-1.137-.188-2.1-.356-2.139-.375-.173-.131.867-1.463 1.811-2.288 2.235-1.989 4.778-2.626 8.053-2.026Zm-6.377 7.24c1.965.488 4.18 1.594 6.203 3.095.848.619 1.927 1.406 2.409 1.763 1.29.956 3.428 2.157 5.047 2.832.79.338 1.54.732 1.676.9.173.207.23 1.388.23 4.333 0 3.545.059 4.145.367 4.802.636 1.35 1.657 1.969 3.217 1.969 1.002 0 1.695-.3 2.427-1.07.829-.843.925-1.368.925-4.95 0-4.07-.039-3.996 2.235-4.183 2.311-.207 5.182-.826 7.089-1.52.963-.356 1.792-.6 1.83-.544.212.207-1.233 3.883-2.08 5.308-1.349 2.308-2.408 3.62-4.45 5.534-2.967 2.775-7.051 5.157-11.212 6.583L23 36.051l-1.483-.525c-4.45-1.5-8.38-3.883-11.54-6.94-4.007-3.845-6.106-7.915-6.627-12.735-.192-1.801.097-4.896.54-5.627.154-.263 2.909.018 4.7.45Z"/><path stroke="color(display-p3 1 .6471 .7294)" d="M10.575 1.108c-4.566.957-8.11 4.708-9.267 9.81-.423 1.782-.404 5.214.02 7.165.944 4.332 3.043 8.177 6.357 11.516 2.967 3.001 5.567 4.82 9.69 6.715l2.157 1.013V51h2.312V38.077l.578.169a2.41 2.41 0 0 0 1.156 0l.578-.17V51h2.312V37.308l2.06-.938c3.989-1.838 6.878-3.826 9.69-6.677C42.709 25.135 45 19.958 45 14.33c.02-6.17-3.217-11.178-8.303-12.885-1.079-.375-1.638-.432-3.68-.413-2.138.019-2.62.094-4.238.6-1.907.62-3.776 1.595-5.008 2.607l-.713.6-1.04-.768c-2.678-1.97-5.414-2.926-8.63-3.058-1.118-.037-2.39 0-2.813.094Zm4.392 2.326c.809.15 1.907.469 2.485.694 1.233.506 3.294 1.8 4.103 2.57 1.252 1.181 1.6 1.162 3.025-.113 2.234-2.026 5.837-3.414 8.803-3.414 4.027 0 7.706 3.151 8.881 7.597.212.787.405 2.063.424 2.832.077 1.688.02 1.744-2.6 2.738-2.12.807-3.892 1.2-6.936 1.538-1.945.225-2.35.338-2.947.77-1.233.918-1.426 1.594-1.426 5.42 0 2.87-.038 3.414-.327 3.714-.405.45-1.118.431-1.6-.038-.365-.356-.384-.619-.384-4.408 0-4.201-.116-4.914-.906-5.758-.173-.187-1.541-.919-3.024-1.65-1.676-.788-3.352-1.763-4.354-2.532-4.835-3.62-6.974-4.652-10.942-5.271-1.137-.188-2.1-.356-2.139-.375-.173-.131.867-1.463 1.811-2.288 2.235-1.989 4.778-2.626 8.053-2.026Zm-6.377 7.24c1.965.488 4.18 1.594 6.203 3.095.848.619 1.927 1.406 2.409 1.763 1.29.956 3.428 2.157 5.047 2.832.79.338 1.54.732 1.676.9.173.207.23 1.388.23 4.333 0 3.545.059 4.145.367 4.802.636 1.35 1.657 1.969 3.217 1.969 1.002 0 1.695-.3 2.427-1.07.829-.843.925-1.368.925-4.95 0-4.07-.039-3.996 2.235-4.183 2.311-.207 5.182-.826 7.089-1.52.963-.356 1.792-.6 1.83-.544.212.207-1.233 3.883-2.08 5.308-1.349 2.308-2.408 3.62-4.45 5.534-2.967 2.775-7.051 5.157-11.212 6.583L23 36.051l-1.483-.525c-4.45-1.5-8.38-3.883-11.54-6.94-4.007-3.845-6.106-7.915-6.627-12.735-.192-1.801.097-4.896.54-5.627.154-.263 2.909.018 4.7.45Z" mask="url('#a')"/></symbol><symbol id="apples" viewBox="0 0 32 32"><path d="M29.626 21.411c-1.292-.458-2.382-.344-3.242.018.145-.877.47-1.832 1.17-2.481a1.065 1.065 0 0 0-1.449-1.561c-1.229 1.14-1.706 2.748-1.874 4.081a4.036 4.036 0 0 0-1.058-.311l1.89-9.83a1.065 1.065 0 0 0-1.046-1.266h-.204c.094-.5.141-.997.137-1.47-.016-1.994-.903-3.495-2.374-4.017-1.41-.5-2.59-.35-3.507.066.145-.976.494-2.063 1.282-2.794A1.065 1.065 0 0 0 17.902.285c-1.32 1.225-1.815 2.965-1.982 4.386-.735-.348-1.644-.527-2.708-.33-1.094-1.571-2.613-2.296-4.089-1.942-1.451.349-2.358 1.115-2.901 1.962-.41-.899-.712-2.001-.452-3.036A1.065 1.065 0 0 0 3.705.806c-.439 1.746.095 3.476.729 4.758-1.016.137-2.117.65-3.049 1.866-.578.755-.773 1.698-.596 2.7a1.065 1.065 0 0 0-.674 1.197l3.809 19.809c.096.501.535.864 1.046.864h15.237c.511 0 .949-.362 1.046-.864l.038-.195c.287.198.596.363.927.487 1.266.471 2.447.278 3.044.118.316.085.795.179 1.364.179.506 0 1.084-.075 1.68-.297 2.36-.879 3.615-3.839 3.596-6.178-.015-1.904-.866-3.339-2.276-3.839zm-6.952-9.221c-.49 4.705-4.452 7.91-9.971 7.91s-9.481-3.204-9.971-7.91h19.942zm-6.642-4.675a1.047 1.047 0 0 0 1.86 0c.029-.048.29-.466.769-.777.629-.408 1.35-.46 2.203-.157.851.302.952 1.518.956 2.027.004.463-.064.962-.191 1.453h-7.126c.236-1.19.094-2.492-.289-3.669a2.12 2.12 0 0 1 1.047.346c.479.311.74.729.769.777zM3.077 8.724c.55-.719 1.182-1.068 1.932-1.069h.002c.57 0 1.016.208 1.066.232a1.05 1.05 0 0 0 1.079-.037c.331-.211.51-.592.481-.983-.006-.077-.116-1.893 1.983-2.397.876-.211 1.625.754 1.906 1.178.807 1.22 1.221 3.108.777 4.413H2.954c-.141-.443-.179-.943.122-1.336zM5.851 29.87 3.74 18.892c.138.133.281.263.427.389 2.208 1.901 5.239 2.948 8.535 2.948s6.328-1.047 8.535-2.948c.052-.044.102-.09.152-.135l-.431 2.243c-.02.007-.041.013-.061.021-1.41.5-2.261 1.935-2.276 3.839-.009 1.164.297 2.483.898 3.622l-.192.999H5.85zm21.711-.438c-.943.351-1.881.017-1.916.005a1.04 1.04 0 0 0-.768 0c-.009.004-.96.352-1.917-.005-1.338-.498-2.223-2.556-2.21-4.165.004-.466.095-1.578.858-1.849.349-.124.661-.175.939-.175 1.108 0 1.657.812 1.782 1.024a1.047 1.047 0 0 0 1.862 0c.156-.265.977-1.468 2.721-.849.763.271.854 1.383.858 1.849.013 1.609-.872 3.667-2.21 4.166z"/></symbol><symbol id="milk" viewBox="0 0 32 32"><path d="M8.093.144c-.35.188-.553.563-.553 1.006.006.813.209 1.556.614 2.2l.178.294-.338.381c-.381.425-.473.581-.645 1.088-.141.412-.153 1.162-.031 1.581.43 1.438 1.854 2.269 3.248 1.9.473-.125.761-.281 1.203-.656l.375-.312.35.175c.196.1.528.244.743.325l.381.138v.7c0 1.106.227 1.762.81 2.356s1.498.9 2.29.762c.565-.1 1.117-.381 1.492-.762.583-.594.81-1.25.81-2.356v-.7l.387-.138c.209-.081.54-.225.737-.325l.35-.175.375.312c.442.375.731.531 1.203.656 1.394.369 2.818-.462 3.248-1.9.123-.419.111-1.169-.031-1.581-.172-.506-.264-.662-.645-1.088l-.338-.381.178-.294c.405-.644.608-1.387.614-2.2 0-.444-.203-.819-.553-1.006L24.281 0H8.355l-.264.144zM22.828 2.1c0 .019-.178.313-.399.663-.651 1.031-.626 1.256.239 2.169.313.331.602.662.645.737.233.463-.233 1.038-.749.919-.123-.025-.393-.244-.786-.631-.786-.775-1.056-.862-1.658-.519-.694.4-1.578.806-2.008.925-.608.175-.817.306-.976.638-.129.256-.141.362-.141 1.362 0 1.231-.049 1.431-.399 1.6-.252.125-.301.125-.553 0-.35-.169-.399-.369-.399-1.6 0-1-.012-1.106-.135-1.362-.166-.325-.375-.463-.982-.638-.528-.15-1.308-.494-1.738-.775-.405-.263-.761-.362-1.044-.313-.184.037-.368.181-.86.662-.405.394-.694.625-.817.65-.51.119-.976-.463-.743-.919.043-.075.332-.406.645-.737.866-.912.89-1.138.239-2.169-.221-.35-.399-.644-.399-.663 0-.025 2.929-.038 6.508-.038s6.508.013 6.508.038zM6.245 13.206c-.313.212-.485.512-.485.844 0 .225 3.119 16.925 3.229 17.275.055.194.282.425.522.55.227.125.387.125 6.809.125s6.582 0 6.809-.125c.239-.125.467-.356.522-.55.11-.35 3.229-17.05 3.229-17.275 0-.331-.172-.631-.485-.844l-.209-.144H6.454l-.209.144zm18.21 2.275c-.061.5-.418 1.587-.682 2.081-1.283 2.375-3.714 3.819-6.729 3.988-2.278.131-4.206-.331-5.82-1.394a7 7 0 0 1-2.265-2.438c-.307-.544-.712-1.712-.774-2.237l-.043-.356h16.356l-.043.356zM10.15 21.919c2.634 1.775 6.569 2.244 9.885 1.169a10.688 10.688 0 0 0 3.18-1.688c.276-.219.295-.219.264-.081-.018.081-.381 1.994-.804 4.244s-.78 4.156-.798 4.231l-.031.144H10.795l-.031-.144c-.018-.075-.375-1.981-.798-4.231s-.786-4.163-.804-4.244c-.031-.137-.012-.137.264.081.16.125.491.356.724.519z"/></symbol><symbol id="qoute" viewBox="0 0 43 32"><path d="M32.014 0c1.929 0 3.75.52 5.464 1.561s3.107 2.537 4.179 4.488C42.686 8 43.2 10.298 43.2 12.943s-.643 5.225-1.929 7.74c-.429.911-1.2 2.081-2.314 3.512a63.368 63.368 0 0 1-3.214 3.707L31.693 32 28.8 27.187a22.03 22.03 0 0 0 5.336-4.683c1.543-1.821 2.314-3.491 2.314-5.008 0-.78-.171-1.409-.514-1.886a8.359 8.359 0 0 1-5.014 1.626c-1.329 0-2.593-.412-3.793-1.236a8.555 8.555 0 0 1-2.957-3.122c-.771-1.258-1.157-2.558-1.157-3.902 0-1.518.45-2.97 1.35-4.358a10.222 10.222 0 0 1 3.407-3.382C29.143.412 30.558 0 32.015 0zM8.936 0c1.929 0 3.75.52 5.464 1.561s3.107 2.537 4.179 4.488c1.029 1.951 1.543 4.249 1.543 6.894 0 1.864-.236 3.534-.707 5.008-.471 1.518-1.286 3.1-2.443 4.748-1.114 1.561-2.164 2.862-3.15 3.902-.986 1.084-2.7 2.884-5.143 5.398l-2.893-4.813a22.03 22.03 0 0 0 5.336-4.683c1.543-1.821 2.314-3.491 2.314-5.008 0-.78-.171-1.409-.514-1.886a8.359 8.359 0 0 1-5.014 1.626c-1.329 0-2.593-.412-3.793-1.236a8.555 8.555 0 0 1-2.957-3.122C.387 11.619.001 10.319.001 8.975c0-1.518.429-2.97 1.286-4.358S3.28 2.102 4.694 1.235C6.065.411 7.48-.001 8.937-.001z"/></symbol><symbol id="arrow-one" viewBox="0 0 32 32"><path d="m19.414 27.414 10-10a2 2 0 0 0 0-2.828l-10-10a2 2 0 1 0-2.828 2.828L23.172 14H4a2 2 0 1 0 0 4h19.172l-6.586 6.586c-.39.39-.586.902-.586 1.414s.195 1.024.586 1.414a2 2 0 0 0 2.828 0z"/></symbol><symbol id="arrow-two" viewBox="0 0 24 24"><path d="m9.707 18.707 6-6a.999.999 0 0 0 0-1.414l-6-6a.999.999 0 1 0-1.414 1.414L13.586 12l-5.293 5.293a.999.999 0 1 0 1.414 1.414z"/></symbol><symbol id="home" viewBox="0 0 24 24"><path d="M12 3s-6.186 5.34-9.643 8.232A1.041 1.041 0 0 0 2 12a1 1 0 0 0 1 1h2v7a1 1 0 0 0 1 1h3a1 1 0 0 0 1-1v-4h4v4a1 1 0 0 0 1 1h3a1 1 0 0 0 1-1v-7h2a1 1 0 0 0 1-1 .98.98 0 0 0-.383-.768C18.184 8.34 12 3 12 3z"/></symbol><symbol id="telegram" viewBox="0 0 32 32"><path fill="none" d="M32 16c0 8.837-7.163 16-16 16S0 24.837 0 16 7.163 0 16 0s16 7.163 16 16z"/><path fill="#fff5f6" style="fill:var(--color2,#fff5f6)" d="m12.867 18.375-.318 4.169c.454 0 .651-.182.887-.401l2.13-1.9 4.415 3.017c.81.421 1.38.199 1.598-.695l2.898-12.673c.257-1.117-.433-1.554-1.222-1.28L6.223 14.698c-1.162.421-1.145 1.026-.198 1.3l4.354 1.264 10.115-5.907c.476-.294.909-.131.553.163l-8.182 6.857z"/></symbol><symbol id="github" viewBox="0 0 32 32"><path d="M16 .395c-8.836 0-16 7.163-16 16 0 7.069 4.585 13.067 10.942 15.182.8.148 1.094-.347 1.094-.77 0-.381-.015-1.642-.022-2.979-4.452.968-5.391-1.888-5.391-1.888-.728-1.849-1.776-2.341-1.776-2.341-1.452-.993.11-.973.11-.973 1.606.113 2.452 1.649 2.452 1.649 1.427 2.446 3.743 1.739 4.656 1.33.143-1.034.558-1.74 1.016-2.14-3.554-.404-7.29-1.777-7.29-7.907 0-1.747.625-3.174 1.649-4.295-.166-.403-.714-2.03.155-4.234 0 0 1.344-.43 4.401 1.64a15.353 15.353 0 0 1 4.005-.539c1.359.006 2.729.184 4.008.539 3.054-2.07 4.395-1.64 4.395-1.64.871 2.204.323 3.831.157 4.234 1.026 1.12 1.647 2.548 1.647 4.295 0 6.145-3.743 7.498-7.306 7.895.574.497 1.085 1.47 1.085 2.963 0 2.141-.019 3.864-.019 4.391 0 .426.288.925 1.099.768C27.421 29.457 32 23.462 32 16.395c0-8.837-7.164-16-16-16z"/></symbol><symbol id="facebook" viewBox="0 0 32 32"><path d="M19 6h5V0h-5c-3.86 0-7 3.14-7 7v3H8v6h4v16h6V16h5l1-6h-6V7c0-.542.458-1 1-1z"/></symbol><symbol id="Ellipse" viewBox="0 0 32 32"><path d="M32 16c0 8.837-7.163 16-16 16S0 24.837 0 16 7.163 0 16 0s16 7.163 16 16z"/></symbol><symbol id="quotation" viewBox="0 0 43 32"><path d="M32.014 0c1.929 0 3.75.52 5.464 1.561s3.107 2.537 4.179 4.488C42.686 8 43.2 10.298 43.2 12.943s-.643 5.225-1.929 7.74c-.429.911-1.2 2.081-2.314 3.512a63.368 63.368 0 0 1-3.214 3.707L31.693 32 28.8 27.187a22.03 22.03 0 0 0 5.336-4.683c1.543-1.821 2.314-3.491 2.314-5.008 0-.78-.171-1.409-.514-1.886a8.359 8.359 0 0 1-5.014 1.626c-1.329 0-2.593-.412-3.793-1.236a8.555 8.555 0 0 1-2.957-3.122c-.771-1.258-1.157-2.558-1.157-3.902 0-1.518.45-2.97 1.35-4.358a10.222 10.222 0 0 1 3.407-3.382C29.143.412 30.558 0 32.015 0zM8.936 0c1.929 0 3.75.52 5.464 1.561s3.107 2.537 4.179 4.488c1.029 1.951 1.543 4.249 1.543 6.894 0 1.864-.236 3.534-.707 5.008-.471 1.518-1.286 3.1-2.443 4.748-1.114 1.561-2.164 2.862-3.15 3.902-.986 1.084-2.7 2.884-5.143 5.398l-2.893-4.813a22.03 22.03 0 0 0 5.336-4.683c1.543-1.821 2.314-3.491 2.314-5.008 0-.78-.171-1.409-.514-1.886a8.359 8.359 0 0 1-5.014 1.626c-1.329 0-2.593-.412-3.793-1.236a8.555 8.555 0 0 1-2.957-3.122C.387 11.619.001 10.319.001 8.975c0-1.518.429-2.97 1.286-4.358S3.28 2.102 4.694 1.235C6.065.411 7.48-.001 8.937-.001z"/></symbol><symbol id="icon-house" viewBox="0 0 32 32"><path d="M31.599 16.766c.58-.595.524-1.507-.125-2.037L17.173 3.056c-.649-.53-1.69-.518-2.325.025L.498 15.351c-.635.543-.667 1.454-.069 2.034l.36.35c.597.579 1.562.648 2.154.154l1.072-.896v13.116c0 .805.699 1.456 1.561 1.456h5.594c.862 0 1.561-.651 1.561-1.456v-9.176h7.135v9.176c-.012.804.604 1.455 1.466 1.455h5.928c.862 0 1.561-.651 1.561-1.456v-12.93l.662.542c.366.3 1.131.059 1.711-.536l.407-.417z"/></symbol><symbol id="icon-Group-8" viewBox="0 0 256 32"><path d="M144 16c0 8.837-7.163 16-16 16s-16-7.163-16-16 7.163-16 16-16 16 7.163 16 16zM32 16c0 8.837-7.163 16-16 16S0 24.837 0 16 7.163 0 16 0s16 7.163 16 16zM256 16c0 8.837-7.163 16-16 16s-16-7.163-16-16 7.163-16 16-16 16 7.163 16 16z"/></symbol><symbol id="vector1" viewBox="0 0 821 2" fill="none"><path d="M0 1h821" stroke="#E1E1E1"/></symbol><symbol id="more" viewBox="0 0 133 32"><path d="M81.512 16c0 8.837-6.843 16-15.284 16s-15.284-7.163-15.284-16S57.787 0 66.228 0s15.284 7.163 15.284 16zM30.567 16c0 8.837-6.843 16-15.284 16S-.001 24.837-.001 16 6.842 0 15.283 0s15.284 7.163 15.284 16zM132.458 16c0 8.837-6.843 16-15.284 16s-15.284-7.163-15.284-16 6.843-16 15.284-16 15.284 7.163 15.284 16z"/></symbol></defs></svg>