<svg aria-hidden="true" style="position:absolute;width:0;height:0" xmlns="http://www.w3.org/2000/svg" overflow="hidden">
    <defs>

        <symbol id="heart" fill="none" viewBox="0 0 46 52">
            <mask id="a" width="46" height="52" x="0" y="0" fill="#000" maskUnits="userSpaceOnUse">
                <path fill="#fff" d="M0 0h46v52H0z"/>
                <path d="M10.575 1.108c-4.566.957-8.11 4.708-9.267 9.81-.423 1.782-.404 5.214.02 7.165.944 4.332 3.043 8.177 6.357 11.516 2.967 3.001 5.567 4.82 9.69 6.715l2.157 1.013V51h2.312V38.077l.578.169a2.41 2.41 0 0 0 1.156 0l.578-.17V51h2.312V37.308l2.06-.938c3.989-1.838 6.878-3.826 9.69-6.677C42.709 25.135 45 19.958 45 14.33c.02-6.17-3.217-11.178-8.303-12.885-1.079-.375-1.638-.432-3.68-.413-2.138.019-2.62.094-4.238.6-1.907.62-3.776 1.595-5.008 2.607l-.713.6-1.04-.768c-2.678-1.97-5.414-2.926-8.63-3.058-1.118-.037-2.39 0-2.813.094Zm4.392 2.326c.809.15 1.907.469 2.485.694 1.233.506 3.294 1.8 4.103 2.57 1.252 1.181 1.6 1.162 3.025-.113 2.234-2.026 5.837-3.414 8.803-3.414 4.027 0 7.706 3.151 8.881 7.597.212.787.405 2.063.424 2.832.077 1.688.02 1.744-2.6 2.738-2.12.807-3.892 1.2-6.936 1.538-1.945.225-2.35.338-2.947.77-1.233.918-1.426 1.594-1.426 5.42 0 2.87-.038 3.414-.327 3.714-.405.45-1.118.431-1.6-.038-.365-.356-.384-.619-.384-4.408 0-4.201-.116-4.914-.906-5.758-.173-.187-1.541-.919-3.024-1.65-1.676-.788-3.352-1.763-4.354-2.532-4.835-3.62-6.974-4.652-10.942-5.271-1.137-.188-2.1-.356-2.139-.375-.173-.131.867-1.463 1.811-2.288 2.235-1.989 4.778-2.626 8.053-2.026Zm-6.377 7.24c1.965.488 4.18 1.594 6.203 3.095.848.619 1.927 1.406 2.409 1.763 1.29.956 3.428 2.157 5.047 2.832.79.338 1.54.732 1.676.9.173.207.23 1.388.23 4.333 0 3.545.059 4.145.367 4.802.636 1.35 1.657 1.969 3.217 1.969 1.002 0 1.695-.3 2.427-1.07.829-.843.925-1.368.925-4.95 0-4.07-.039-3.996 2.235-4.183 2.311-.207 5.182-.826 7.089-1.52.963-.356 1.792-.6 1.83-.544.212.207-1.233 3.883-2.08 5.308-1.349 2.308-2.408 3.62-4.45 5.534-2.967 2.775-7.051 5.157-11.212 6.583L23 36.051l-1.483-.525c-4.45-1.5-8.38-3.883-11.54-6.94-4.007-3.845-6.106-7.915-6.627-12.735-.192-1.801.097-4.896.54-5.627.154-.263 2.909.018 4.7.45Z"/>
            </mask>
            <path fill="color(display-p3 1 .6471 .7294)" d="M10.575 1.108c-4.566.957-8.11 4.708-9.267 9.81-.423 1.782-.404 5.214.02 7.165.944 4.332 3.043 8.177 6.357 11.516 2.967 3.001 5.567 4.82 9.69 6.715l2.157 1.013V51h2.312V38.077l.578.169a2.41 2.41 0 0 0 1.156 0l.578-.17V51h2.312V37.308l2.06-.938c3.989-1.838 6.878-3.826 9.69-6.677C42.709 25.135 45 19.958 45 14.33c.02-6.17-3.217-11.178-8.303-12.885-1.079-.375-1.638-.432-3.68-.413-2.138.019-2.62.094-4.238.6-1.907.62-3.776 1.595-5.008 2.607l-.713.6-1.04-.768c-2.678-1.97-5.414-2.926-8.63-3.058-1.118-.037-2.39 0-2.813.094Zm4.392 2.326c.809.15 1.907.469 2.485.694 1.233.506 3.294 1.8 4.103 2.57 1.252 1.181 1.6 1.162 3.025-.113 2.234-2.026 5.837-3.414 8.803-3.414 4.027 0 7.706 3.151 8.881 7.597.212.787.405 2.063.424 2.832.077 1.688.02 1.744-2.6 2.738-2.12.807-3.892 1.2-6.936 1.538-1.945.225-2.35.338-2.947.77-1.233.918-1.426 1.594-1.426 5.42 0 2.87-.038 3.414-.327 3.714-.405.45-1.118.431-1.6-.038-.365-.356-.384-.619-.384-4.408 0-4.201-.116-4.914-.906-5.758-.173-.187-1.541-.919-3.024-1.65-1.676-.788-3.352-1.763-4.354-2.532-4.835-3.62-6.974-4.652-10.942-5.271-1.137-.188-2.1-.356-2.139-.375-.173-.131.867-1.463 1.811-2.288 2.235-1.989 4.778-2.626 8.053-2.026Zm-6.377 7.24c1.965.488 4.18 1.594 6.203 3.095.848.619 1.927 1.406 2.409 1.763 1.29.956 3.428 2.157 5.047 2.832.79.338 1.54.732 1.676.9.173.207.23 1.388.23 4.333 0 3.545.059 4.145.367 4.802.636 1.35 1.657 1.969 3.217 1.969 1.002 0 1.695-.3 2.427-1.07.829-.843.925-1.368.925-4.95 0-4.07-.039-3.996 2.235-4.183 2.311-.207 5.182-.826 7.089-1.52.963-.356 1.792-.6 1.83-.544.212.207-1.233 3.883-2.08 5.308-1.349 2.308-2.408 3.62-4.45 5.534-2.967 2.775-7.051 5.157-11.212 6.583L23 36.051l-1.483-.525c-4.45-1.5-8.38-3.883-11.54-6.94-4.007-3.845-6.106-7.915-6.627-12.735-.192-1.801.097-4.896.54-5.627.154-.263 2.909.018 4.7.45Z"/>
            <path stroke="color(display-p3 1 .6471 .7294)" d="M10.575 1.108c-4.566.957-8.11 4.708-9.267 9.81-.423 1.782-.404 5.214.02 7.165.944 4.332 3.043 8.177 6.357 11.516 2.967 3.001 5.567 4.82 9.69 6.715l2.157 1.013V51h2.312V38.077l.578.169a2.41 2.41 0 0 0 1.156 0l.578-.17V51h2.312V37.308l2.06-.938c3.989-1.838 6.878-3.826 9.69-6.677C42.709 25.135 45 19.958 45 14.33c.02-6.17-3.217-11.178-8.303-12.885-1.079-.375-1.638-.432-3.68-.413-2.138.019-2.62.094-4.238.6-1.907.62-3.776 1.595-5.008 2.607l-.713.6-1.04-.768c-2.678-1.97-5.414-2.926-8.63-3.058-1.118-.037-2.39 0-2.813.094Zm4.392 2.326c.809.15 1.907.469 2.485.694 1.233.506 3.294 1.8 4.103 2.57 1.252 1.181 1.6 1.162 3.025-.113 2.234-2.026 5.837-3.414 8.803-3.414 4.027 0 7.706 3.151 8.881 7.597.212.787.405 2.063.424 2.832.077 1.688.02 1.744-2.6 2.738-2.12.807-3.892 1.2-6.936 1.538-1.945.225-2.35.338-2.947.77-1.233.918-1.426 1.594-1.426 5.42 0 2.87-.038 3.414-.327 3.714-.405.45-1.118.431-1.6-.038-.365-.356-.384-.619-.384-4.408 0-4.201-.116-4.914-.906-5.758-.173-.187-1.541-.919-3.024-1.65-1.676-.788-3.352-1.763-4.354-2.532-4.835-3.62-6.974-4.652-10.942-5.271-1.137-.188-2.1-.356-2.139-.375-.173-.131.867-1.463 1.811-2.288 2.235-1.989 4.778-2.626 8.053-2.026Zm-6.377 7.24c1.965.488 4.18 1.594 6.203 3.095.848.619 1.927 1.406 2.409 1.763 1.29.956 3.428 2.157 5.047 2.832.79.338 1.54.732 1.676.9.173.207.23 1.388.23 4.333 0 3.545.059 4.145.367 4.802.636 1.35 1.657 1.969 3.217 1.969 1.002 0 1.695-.3 2.427-1.07.829-.843.925-1.368.925-4.95 0-4.07-.039-3.996 2.235-4.183 2.311-.207 5.182-.826 7.089-1.52.963-.356 1.792-.6 1.83-.544.212.207-1.233 3.883-2.08 5.308-1.349 2.308-2.408 3.62-4.45 5.534-2.967 2.775-7.051 5.157-11.212 6.583L23 36.051l-1.483-.525c-4.45-1.5-8.38-3.883-11.54-6.94-4.007-3.845-6.106-7.915-6.627-12.735-.192-1.801.097-4.896.54-5.627.154-.263 2.909.018 4.7.45Z" mask="url(#a)"/>
        </symbol>

        <symbol id="apples" viewBox="0 0 32 32">
            <path d="M29.626 21.411c-1.292-0.458-2.382-0.344-3.242 0.018 0.145-0.877 0.47-1.832 1.17-2.481 0.431-0.4 0.456-1.074 0.056-1.505s-1.074-0.456-1.505-0.056c-1.229 1.14-1.706 2.748-1.874 4.081-0.32-0.144-0.673-0.253-1.058-0.311l1.89-9.83c0.060-0.312-0.022-0.634-0.225-0.879s-0.503-0.387-0.821-0.387h-0.204c0.094-0.5 0.141-0.997 0.137-1.47-0.016-1.994-0.903-3.495-2.374-4.017-1.41-0.5-2.59-0.35-3.507 0.066 0.145-0.976 0.494-2.063 1.282-2.794 0.431-0.4 0.456-1.074 0.056-1.505s-1.074-0.456-1.505-0.056c-1.32 1.225-1.815 2.965-1.982 4.386-0.735-0.348-1.644-0.527-2.708-0.33-1.094-1.571-2.613-2.296-4.089-1.942-1.451 0.349-2.358 1.115-2.901 1.962-0.41-0.899-0.712-2.001-0.452-3.036 0.143-0.57-0.203-1.149-0.773-1.292s-1.149 0.203-1.292 0.773c-0.439 1.746 0.095 3.476 0.729 4.758-1.016 0.137-2.117 0.65-3.049 1.866-0.578 0.755-0.773 1.698-0.596 2.7-0.173 0.065-0.329 0.173-0.449 0.318-0.202 0.245-0.285 0.567-0.225 0.879l3.809 19.809c0.096 0.501 0.535 0.864 1.046 0.864h15.237c0.511 0 0.949-0.362 1.046-0.864l0.038-0.195c0.287 0.198 0.596 0.363 0.927 0.487 1.266 0.471 2.447 0.278 3.044 0.118 0.316 0.085 0.795 0.179 1.364 0.179 0.506 0 1.084-0.075 1.68-0.297 2.36-0.879 3.615-3.839 3.596-6.178-0.015-1.904-0.866-3.339-2.276-3.839zM22.674 12.19c-0.49 4.705-4.452 7.91-9.971 7.91s-9.481-3.204-9.971-7.91h19.942zM16.032 7.515c0.184 0.349 0.536 0.567 0.93 0.567s0.746-0.218 0.93-0.567c0.029-0.048 0.29-0.466 0.769-0.777 0.629-0.408 1.35-0.46 2.203-0.157 0.851 0.302 0.952 1.518 0.956 2.027 0.004 0.463-0.064 0.962-0.191 1.453h-7.126c0.236-1.19 0.094-2.492-0.289-3.669 0.377 0.022 0.724 0.137 1.047 0.346 0.479 0.311 0.74 0.729 0.769 0.777zM3.077 8.724c0.55-0.719 1.182-1.068 1.932-1.069h0.002c0.57 0 1.016 0.208 1.066 0.232 0.341 0.189 0.749 0.172 1.079-0.037 0.331-0.211 0.51-0.592 0.481-0.983-0.006-0.077-0.116-1.893 1.983-2.397 0.876-0.211 1.625 0.754 1.906 1.178 0.807 1.22 1.221 3.108 0.777 4.413h-9.349c-0.141-0.443-0.179-0.943 0.122-1.336zM5.851 29.87l-2.111-10.978c0.138 0.133 0.281 0.263 0.427 0.389 2.208 1.901 5.239 2.948 8.535 2.948s6.328-1.047 8.535-2.948c0.052-0.044 0.102-0.090 0.152-0.135l-0.431 2.243c-0.020 0.007-0.041 0.013-0.061 0.021-1.41 0.5-2.261 1.935-2.276 3.839-0.009 1.164 0.297 2.483 0.898 3.622l-0.192 0.999h-13.477zM27.562 29.432c-0.943 0.351-1.881 0.017-1.916 0.005-0.25-0.097-0.518-0.099-0.768-0-0.009 0.004-0.96 0.352-1.917-0.005-1.338-0.498-2.223-2.556-2.21-4.165 0.004-0.466 0.095-1.578 0.858-1.849 0.349-0.124 0.661-0.175 0.939-0.175 1.108 0 1.657 0.812 1.782 1.024 0.184 0.35 0.535 0.569 0.931 0.569s0.747-0.219 0.931-0.569c0.156-0.265 0.977-1.468 2.721-0.849 0.763 0.271 0.854 1.383 0.858 1.849 0.013 1.609-0.872 3.667-2.21 4.166z"></path>
        </symbol>

        <symbol id="milk" viewBox="0 0 32 32">
            <path d="M8.093 0.144c-0.35 0.188-0.553 0.563-0.553 1.006 0.006 0.813 0.209 1.556 0.614 2.2l0.178 0.294-0.338 0.381c-0.381 0.425-0.473 0.581-0.645 1.088-0.141 0.412-0.153 1.162-0.031 1.581 0.43 1.438 1.854 2.269 3.248 1.9 0.473-0.125 0.761-0.281 1.203-0.656l0.375-0.312 0.35 0.175c0.196 0.1 0.528 0.244 0.743 0.325l0.381 0.138v0.7c0 1.106 0.227 1.762 0.81 2.356s1.498 0.9 2.29 0.762c0.565-0.1 1.117-0.381 1.492-0.762 0.583-0.594 0.81-1.25 0.81-2.356v-0.7l0.387-0.138c0.209-0.081 0.54-0.225 0.737-0.325l0.35-0.175 0.375 0.312c0.442 0.375 0.731 0.531 1.203 0.656 1.394 0.369 2.818-0.462 3.248-1.9 0.123-0.419 0.111-1.169-0.031-1.581-0.172-0.506-0.264-0.662-0.645-1.088l-0.338-0.381 0.178-0.294c0.405-0.644 0.608-1.387 0.614-2.2 0-0.444-0.203-0.819-0.553-1.006l-0.264-0.144h-15.926l-0.264 0.144zM22.828 2.1c0 0.019-0.178 0.313-0.399 0.663-0.651 1.031-0.626 1.256 0.239 2.169 0.313 0.331 0.602 0.662 0.645 0.737 0.233 0.463-0.233 1.038-0.749 0.919-0.123-0.025-0.393-0.244-0.786-0.631-0.786-0.775-1.056-0.862-1.658-0.519-0.694 0.4-1.578 0.806-2.008 0.925-0.608 0.175-0.817 0.306-0.976 0.638-0.129 0.256-0.141 0.362-0.141 1.362 0 1.231-0.049 1.431-0.399 1.6-0.252 0.125-0.301 0.125-0.553 0-0.35-0.169-0.399-0.369-0.399-1.6 0-1-0.012-1.106-0.135-1.362-0.166-0.325-0.375-0.463-0.982-0.638-0.528-0.15-1.308-0.494-1.738-0.775-0.405-0.263-0.761-0.362-1.044-0.313-0.184 0.037-0.368 0.181-0.86 0.662-0.405 0.394-0.694 0.625-0.817 0.65-0.51 0.119-0.976-0.463-0.743-0.919 0.043-0.075 0.332-0.406 0.645-0.737 0.866-0.912 0.89-1.138 0.239-2.169-0.221-0.35-0.399-0.644-0.399-0.663 0-0.025 2.929-0.038 6.508-0.038s6.508 0.013 6.508 0.038z"></path>
            <path d="M6.245 13.206c-0.313 0.212-0.485 0.512-0.485 0.844 0 0.225 3.119 16.925 3.229 17.275 0.055 0.194 0.282 0.425 0.522 0.55 0.227 0.125 0.387 0.125 6.809 0.125s6.582 0 6.809-0.125c0.239-0.125 0.467-0.356 0.522-0.55 0.11-0.35 3.229-17.050 3.229-17.275 0-0.331-0.172-0.631-0.485-0.844l-0.209-0.144h-19.732l-0.209 0.144zM24.455 15.481c-0.061 0.5-0.418 1.587-0.682 2.081-1.283 2.375-3.714 3.819-6.729 3.988-2.278 0.131-4.206-0.331-5.82-1.394-0.933-0.612-1.713-1.45-2.265-2.438-0.307-0.544-0.712-1.712-0.774-2.237l-0.043-0.356h16.356l-0.043 0.356zM10.15 21.919c2.634 1.775 6.569 2.244 9.885 1.169 1.105-0.356 2.235-0.956 3.18-1.688 0.276-0.219 0.295-0.219 0.264-0.081-0.018 0.081-0.381 1.994-0.804 4.244s-0.78 4.156-0.798 4.231l-0.031 0.144h-11.051l-0.031-0.144c-0.018-0.075-0.375-1.981-0.798-4.231s-0.786-4.163-0.804-4.244c-0.031-0.137-0.012-0.137 0.264 0.081 0.16 0.125 0.491 0.356 0.724 0.519z"></path>
        </symbol>
        
        <symbol id="qoute" viewBox="0 0 43 32">
            <path d="M32.014 0c1.929 0 3.75 0.52 5.464 1.561s3.107 2.537 4.179 4.488c1.029 1.951 1.543 4.249 1.543 6.894s-0.643 5.225-1.929 7.74c-0.429 0.911-1.2 2.081-2.314 3.512-1.157 1.431-2.229 2.667-3.214 3.707l-4.050 4.098-2.893-4.813c2.014-1.257 3.793-2.818 5.336-4.683 1.543-1.821 2.314-3.491 2.314-5.008 0-0.78-0.171-1.409-0.514-1.886-1.5 1.084-3.171 1.626-5.014 1.626-1.329 0-2.593-0.412-3.793-1.236-1.243-0.78-2.229-1.821-2.957-3.122-0.771-1.258-1.157-2.558-1.157-3.902 0-1.518 0.45-2.97 1.35-4.358 0.857-1.388 1.993-2.515 3.407-3.382 1.371-0.824 2.786-1.236 4.243-1.236zM8.936 0c1.929 0 3.75 0.52 5.464 1.561s3.107 2.537 4.179 4.488c1.029 1.951 1.543 4.249 1.543 6.894 0 1.864-0.236 3.534-0.707 5.008-0.471 1.518-1.286 3.1-2.443 4.748-1.114 1.561-2.164 2.862-3.15 3.902-0.986 1.084-2.7 2.884-5.143 5.398l-2.893-4.813c2.014-1.257 3.793-2.818 5.336-4.683 1.543-1.821 2.314-3.491 2.314-5.008 0-0.78-0.171-1.409-0.514-1.886-1.5 1.084-3.171 1.626-5.014 1.626-1.329 0-2.593-0.412-3.793-1.236-1.243-0.78-2.229-1.821-2.957-3.122-0.771-1.258-1.157-2.558-1.157-3.902 0-1.518 0.429-2.97 1.286-4.358s1.993-2.515 3.407-3.382c1.371-0.824 2.786-1.236 4.243-1.236z"></path>
        </symbol>
        <!-- icon for circular buttons -->
        <symbol id="arrow-one" viewBox="0 0 32 32">
            <path d="M19.414 27.414l10-10c0.781-0.781 0.781-2.047 0-2.828l-10-10c-0.781-0.781-2.047-0.781-2.828 0s-0.781 2.047 0 2.828l6.586 6.586h-19.172c-1.105 0-2 0.895-2 2s0.895 2 2 2h19.172l-6.586 6.586c-0.39 0.39-0.586 0.902-0.586 1.414s0.195 1.024 0.586 1.414c0.781 0.781 2.047 0.781 2.828 0z"></path>
        </symbol>
        <!-- icon for buttons -->
        <symbol id="arrow-two" viewBox="0 0 24 24">
            <path d="M9.707 18.707l6-6c0.391-0.391 0.391-1.024 0-1.414l-6-6c-0.391-0.391-1.024-0.391-1.414 0s-0.391 1.024 0 1.414l5.293 5.293-5.293 5.293c-0.391 0.391-0.391 1.024 0 1.414s1.024 0.391 1.414 0z"></path>
        </symbol>

        <symbol id="home" viewBox="0 0 24 24">
            <path d="M12 3c0 0-6.186 5.34-9.643 8.232-0.203 0.184-0.357 0.452-0.357 0.768 0 0.553 0.447 1 1 1h2v7c0 0.553 0.447 1 1 1h3c0.553 0 1-0.448 1-1v-4h4v4c0 0.552 0.447 1 1 1h3c0.553 0 1-0.447 1-1v-7h2c0.553 0 1-0.447 1-1 0-0.316-0.154-0.584-0.383-0.768-3.433-2.892-9.617-8.232-9.617-8.232z"></path>
        </symbol>
    
        <symbol id="telegram" viewBox="0 0 28 28">
            <path d="M18.578 20.422l2.297-10.828c0.203-0.953-0.344-1.328-0.969-1.094l-13.5 5.203c-0.922 0.359-0.906 0.875-0.156 1.109l3.453 1.078 8.016-5.047c0.375-0.25 0.719-0.109 0.438 0.141l-6.484 5.859-0.25 3.563c0.359 0 0.516-0.156 0.703-0.344l1.687-1.625 3.5 2.578c0.641 0.359 1.094 0.172 1.266-0.594zM28 14c0 7.734-6.266 14-14 14s-14-6.266-14-14 6.266-14 14-14 14 6.266 14 14z"></path>
        </symbol>

        <symbol id="github" viewBox="0 0 32 32">
            <path d="M16 0.395c-8.836 0-16 7.163-16 16 0 7.069 4.585 13.067 10.942 15.182 0.8 0.148 1.094-0.347 1.094-0.77 0-0.381-0.015-1.642-0.022-2.979-4.452 0.968-5.391-1.888-5.391-1.888-0.728-1.849-1.776-2.341-1.776-2.341-1.452-0.993 0.11-0.973 0.11-0.973 1.606 0.113 2.452 1.649 2.452 1.649 1.427 2.446 3.743 1.739 4.656 1.33 0.143-1.034 0.558-1.74 1.016-2.14-3.554-0.404-7.29-1.777-7.29-7.907 0-1.747 0.625-3.174 1.649-4.295-0.166-0.403-0.714-2.030 0.155-4.234 0 0 1.344-0.43 4.401 1.64 1.276-0.355 2.645-0.532 4.005-0.539 1.359 0.006 2.729 0.184 4.008 0.539 3.054-2.070 4.395-1.64 4.395-1.64 0.871 2.204 0.323 3.831 0.157 4.234 1.026 1.12 1.647 2.548 1.647 4.295 0 6.145-3.743 7.498-7.306 7.895 0.574 0.497 1.085 1.47 1.085 2.963 0 2.141-0.019 3.864-0.019 4.391 0 0.426 0.288 0.925 1.099 0.768 6.354-2.118 10.933-8.113 10.933-15.18 0-8.837-7.164-16-16-16z"></path>
        </symbol>

        <symbol id="facebook" viewBox="0 0 32 32">
            <path d="M19 6h5v-6h-5c-3.86 0-7 3.14-7 7v3h-4v6h4v16h6v-16h5l1-6h-6v-3c0-0.542 0.458-1 1-1z"></path>
        </symbol>
      
        <!-- comment section icons -->
        <symbol id="Ellipse" viewBox="0 0 32 32">
            <path d="M32 16c0 8.837-7.163 16-16 16s-16-7.163-16-16c0-8.837 7.163-16 16-16s16 7.163 16 16z"></path>
        </symbol>
        <symbol id="quotation" viewBox="0 0 43 32">
            <path d="M32.014 0c1.929 0 3.75 0.52 5.464 1.561s3.107 2.537 4.179 4.488c1.029 1.951 1.543 4.249 1.543 6.894s-0.643 5.225-1.929 7.74c-0.429 0.911-1.2 2.081-2.314 3.512-1.157 1.431-2.229 2.667-3.214 3.707l-4.050 4.098-2.893-4.813c2.014-1.257 3.793-2.818 5.336-4.683 1.543-1.821 2.314-3.491 2.314-5.008 0-0.78-0.171-1.409-0.514-1.886-1.5 1.084-3.171 1.626-5.014 1.626-1.329 0-2.593-0.412-3.793-1.236-1.243-0.78-2.229-1.821-2.957-3.122-0.771-1.258-1.157-2.558-1.157-3.902 0-1.518 0.45-2.97 1.35-4.358 0.857-1.388 1.993-2.515 3.407-3.382 1.371-0.824 2.786-1.236 4.243-1.236zM8.936 0c1.929 0 3.75 0.52 5.464 1.561s3.107 2.537 4.179 4.488c1.029 1.951 1.543 4.249 1.543 6.894 0 1.864-0.236 3.534-0.707 5.008-0.471 1.518-1.286 3.1-2.443 4.748-1.114 1.561-2.164 2.862-3.15 3.902-0.986 1.084-2.7 2.884-5.143 5.398l-2.893-4.813c2.014-1.257 3.793-2.818 5.336-4.683 1.543-1.821 2.314-3.491 2.314-5.008 0-0.78-0.171-1.409-0.514-1.886-1.5 1.084-3.171 1.626-5.014 1.626-1.329 0-2.593-0.412-3.793-1.236-1.243-0.78-2.229-1.821-2.957-3.122-0.771-1.258-1.157-2.558-1.157-3.902 0-1.518 0.429-2.97 1.286-4.358s1.993-2.515 3.407-3.382c1.371-0.824 2.786-1.236 4.243-1.236z"></path>
        </symbol>
        <symbol id="icon-house" viewBox="0 0 32 32">
            <path d="M31.599 16.766c0.58-0.595 0.524-1.507-0.125-2.037l-14.301-11.673c-0.649-0.53-1.69-0.518-2.325 0.025l-14.35 12.27c-0.635 0.543-0.667 1.454-0.069 2.034l0.36 0.35c0.597 0.579 1.562 0.648 2.154 0.154l1.072-0.896v13.116c0 0.805 0.699 1.456 1.561 1.456h5.594c0.862 0 1.561-0.651 1.561-1.456v-9.176h7.135v9.176c-0.012 0.804 0.604 1.455 1.466 1.455h5.928c0.862 0 1.561-0.651 1.561-1.456v-12.93c0 0 0.296 0.242 0.662 0.542s1.131 0.059 1.711-0.536l0.407-0.417z"></path>
        </symbol>
        <symbol id="icon-Group-8" viewBox="0 0 256 32">
            <path d="M144 16c0 8.837-7.163 16-16 16s-16-7.163-16-16c0-8.837 7.163-16 16-16s16 7.163 16 16z"></path>
            <path d="M32 16c0 8.837-7.163 16-16 16s-16-7.163-16-16c0-8.837 7.163-16 16-16s16 7.163 16 16z"></path>
            <path d="M256 16c0 8.837-7.163 16-16 16s-16-7.163-16-16c0-8.837 7.163-16 16-16s16 7.163 16 16z"></path>
        </symbol>
        <symbol id="vector1" width="821" height="2" viewBox="0 0 821 2" fill="none">
            <path d="M0 1L821 1.00007" stroke="#E1E1E1"/>
        </symbol>
    </defs>
</svg>

